<svg viewBox="0 0 1200 800" xmlns="http://www.w3.org/2000/svg">
<defs>
  <filter id="blurA" x="-50%" y="-50%" width="200%" height="200%"><feGaussianBlur stdDeviation="3.2"/></filter>
  <filter id="blurB" x="-50%" y="-50%" width="200%" height="200%"><feGaussianBlur stdDeviation="6"/></filter>
</defs>
<rect width="1200" height="800" fill="#FAF7F2"/>
<g fill="none" stroke="#22221F" stroke-linecap="round" opacity="0.16" filter="url(#blurB)">
<path d="M -40.0 -30.0 L -26.9 1.4 L -11.0 42.5 L 18.6 81.4 L 56.0 108.7 L 88.4 120.9 L 145.2 139.3 L 184.2 142.4 L 247.3 152.4 L 291.4 161.6 L 320.4 177.6 L 351.3 205.2 L 382.4 222.5 L 437.3 244.8 L 487.8 254.3" stroke-width="3.8"/>
<path d="M 184.2 142.4 L 186.9 197.9 L 189.5 250.3 L 181.4 299.7 L 159.7 340.6 L 148.2 378.7 L 130.5 410.4 L 112.6 458.3" stroke-width="1.9"/>
<path d="M 351.3 205.2 L 347.6 232.4 L 346.9 279.0 L 349.1 326.3 L 362.6 361.0 L 369.1 404.3 L 377.7 435.2 L 389.3 476.8" stroke-width="1.6"/>
<path d="M 88.4 120.9 L 103.7 176.1 L 114.2 242.7 L 110.4 285.1 L 110.2 341.2 L 127.6 386.8 L 148.9 416.6 L 197.7 450.9" stroke-width="1.6"/>
<path d="M 140.0 -40.0 L 151.7 -5.2 L 170.5 45.2 L 177.9 108.4 L 173.0 152.1 L 170.2 198.9 L 149.9 264.5 L 146.6 304.6 L 150.3 346.7 L 155.6 401.7 L 163.9 434.7 L 177.7 479.9 L 194.9 546.2 L 202.0 598.3 L 205.6 656.6" stroke-width="3.6"/>
<path d="M 173.0 152.1 L 141.9 213.2 L 122.0 261.9 L 116.8 323.8 L 126.7 362.0 L 146.5 400.5 L 168.5 432.7 L 204.2 456.4" stroke-width="1.5"/>
<path d="M 155.6 401.7 L 194.9 425.2 L 223.2 459.9 L 243.0 483.2 L 279.4 525.4 L 303.6 552.6 L 345.0 579.1 L 375.0 607.3" stroke-width="2.1"/>
<path d="M 173.0 152.1 L 224.6 150.9 L 272.0 131.7 L 334.9 130.5 L 376.3 136.0 L 414.7 137.1 L 464.6 149.2 L 504.3 168.5" stroke-width="1.6"/>
<path d="M 950.0 -60.0 L 902.1 -4.3 L 846.3 39.0 L 805.1 84.3 L 780.6 116.7 L 763.0 164.7 L 749.4 232.0 L 722.1 283.5 L 666.1 342.2 L 618.7 369.6 L 581.2 401.1 L 551.0 438.4 L 497.7 494.6 L 448.5 528.2 L 384.3 563.4" stroke-width="5.0"/>
<path d="M 763.0 164.7 L 767.2 229.6 L 791.6 305.1 L 825.7 377.4 L 830.5 438.4 L 843.8 524.0 L 842.9 574.8 L 856.1 622.9" stroke-width="3.1"/>
<path d="M 749.4 232.0 L 713.3 247.6 L 663.4 297.2 L 621.0 330.6 L 573.3 347.1 L 508.3 350.3 L 466.2 362.0 L 426.8 380.0" stroke-width="2.7"/>
<path d="M 666.1 342.2 L 610.6 352.6 L 556.7 355.9 L 502.5 358.4 L 470.7 350.5 L 426.2 351.6 L 375.2 337.9 L 325.6 320.1" stroke-width="2.2"/>
<path d="M 1120.0 -20.0 L 1114.4 17.9 L 1099.9 72.5 L 1083.7 136.4 L 1065.7 170.1 L 1054.8 206.0 L 1052.5 259.4 L 1070.2 327.6 L 1094.6 369.5 L 1108.2 427.3 L 1127.2 470.0 L 1154.2 531.4 L 1172.3 573.2 L 1199.2 637.6 L 1208.2 708.7" stroke-width="3.4"/>
<path d="M 1070.2 327.6 L 1050.1 349.2 L 1034.7 374.4 L 1003.1 413.6 L 976.5 431.2 L 933.8 450.3 L 892.9 484.5 L 860.9 495.6" stroke-width="2.1"/>
<path d="M 1127.2 470.0 L 1090.7 524.2 L 1046.7 554.3 L 1006.1 585.8 L 976.9 628.6 L 951.6 678.0 L 920.7 720.5 L 891.4 759.7" stroke-width="2.1"/>
<path d="M 1054.8 206.0 L 1070.0 229.7 L 1082.1 262.5 L 1105.6 294.0 L 1121.7 342.2 L 1137.0 369.7 L 1145.1 412.5 L 1146.1 442.2" stroke-width="1.4"/>
<path d="M 700.0 -40.0 L 739.7 15.9 L 772.1 70.7 L 818.9 116.6 L 876.5 148.4 L 918.0 169.7 L 977.6 202.9 L 1013.9 216.7 L 1053.8 232.5 L 1093.5 237.9 L 1134.6 231.7 L 1178.3 219.7 L 1222.8 215.1 L 1263.3 210.9 L 1297.4 204.0" stroke-width="4.7"/>
<path d="M 1053.8 232.5 L 1080.8 267.0 L 1127.0 323.6 L 1184.2 361.3 L 1232.3 389.6 L 1268.8 426.3 L 1313.3 471.5 L 1333.0 517.2" stroke-width="2.9"/>
<path d="M 977.6 202.9 L 951.3 234.7 L 895.2 290.6 L 866.4 322.6 L 822.9 359.9 L 759.6 413.9 L 702.3 455.7 L 675.1 496.1" stroke-width="2.2"/>
<path d="M 876.5 148.4 L 856.4 182.7 L 846.4 239.4 L 848.0 274.7 L 853.4 306.4 L 870.1 353.9 L 897.6 400.5 L 939.2 437.3" stroke-width="2.1"/>
</g>
<g fill="none" stroke="#22221F" stroke-linecap="round" opacity="0.11" filter="url(#blurA)">
<path d="M -29.6 -32.1 L 14.6 -4.5 L 34.2 18.1 L 52.0 61.9 L 66.1 106.5 L 70.8 145.5 L 83.5 186.3 L 110.8 226.2 L 127.0 262.6 L 147.8 302.5 L 170.9 347.7" stroke-width="2.1"/>
<path d="M -31.8 -23.7 L -3.4 12.8 L 8.8 55.4 L 24.9 77.5 L 51.0 124.0 L 73.5 155.8 L 95.8 170.4 L 123.0 189.2 L 158.9 204.7 L 211.4 207.2 L 238.1 217.9" stroke-width="1.8"/>
<path d="M 169.5 -40.5 L 194.1 3.4 L 225.8 38.4 L 262.7 76.4 L 312.3 100.2 L 340.4 107.9 L 371.6 120.4 L 405.3 137.2 L 445.6 164.2 L 470.0 184.4 L 503.0 210.9" stroke-width="2.4"/>
<path d="M 91.9 -45.6 L 118.9 -16.6 L 146.2 30.8 L 162.6 62.0 L 192.0 89.0 L 216.1 104.3 L 262.1 133.8 L 282.8 165.0 L 295.3 216.4 L 311.5 240.4 L 324.2 271.8" stroke-width="1.6"/>
<path d="M 962.4 -57.4 L 956.6 -26.3 L 942.6 -0.5 L 933.8 40.2 L 923.2 67.9 L 907.5 93.2 L 897.4 114.2 L 888.9 140.7 L 883.7 169.6 L 870.9 191.0 L 865.9 227.7" stroke-width="1.5"/>
<path d="M 897.8 -62.2 L 864.0 -47.8 L 837.8 -45.0 L 807.1 -28.9 L 785.2 -20.5 L 755.4 -21.3 L 718.6 -16.5 L 689.2 -19.8 L 653.9 -9.4 L 617.1 4.7 L 593.7 12.6" stroke-width="1.3"/>
<path d="M 1172.0 -21.8 L 1149.4 0.5 L 1119.2 14.4 L 1096.3 34.0 L 1079.6 54.7 L 1052.2 77.3 L 1033.4 95.5 L 1007.9 120.8 L 992.0 152.3 L 988.4 184.2 L 976.2 215.1" stroke-width="1.7"/>
<path d="M 1099.9 -14.8 L 1096.8 14.5 L 1091.7 47.5 L 1089.7 94.0 L 1094.9 118.8 L 1091.3 153.7 L 1082.0 182.7 L 1076.8 227.4 L 1072.1 267.3 L 1072.2 310.5 L 1071.2 356.5" stroke-width="2.2"/>
<path d="M 651.1 -32.1 L 667.8 -1.9 L 680.6 49.2 L 700.4 81.1 L 716.2 126.6 L 714.0 166.0 L 729.2 215.3 L 726.9 255.7 L 725.7 293.9 L 717.1 324.8 L 718.3 377.6" stroke-width="1.3"/>
<path d="M 739.0 -36.0 L 759.0 11.9 L 782.2 33.9 L 802.3 55.3 L 833.5 103.6 L 853.5 143.1 L 879.1 187.8 L 907.3 212.3 L 923.1 242.4 L 956.2 282.9 L 995.9 303.0" stroke-width="2.4"/>
</g>
</svg>